<svg xmlns="http://www.w3.org/2000/svg" width="97.142" height="163.934">
    <path data-name="Combined Shape" d="M89.142 159.935a4 4 0 1 1 4 4 4 4 0 0 1-4-4zm-18.857 0a4 4 0 1 1 4 4 4 4 0 0 1-4-4zm-17.142 0a4 4 0 1 1 4 4 4 4 0 0 1-4-4zm-17.715 0a4 4 0 1 1 4 4 4 4 0 0 1-3.999-4zm-17.714 0a4 4 0 1 1 4 4 4 4 0 0 1-3.999-4zm-17.714 0a4 4 0 1 1 4 4 4 4 0 0 1-4-4zm89.142-26.886a4 4 0 1 1 4 4 4 4 0 0 1-4-4zm-18.857 0a4 4 0 1 1 4 4 4 4 0 0 1-4-4zm-17.142 0a4 4 0 1 1 4 4 4 4 0 0 1-4-4zm-17.715 0a4 4 0 1 1 4 4 4 4 0 0 1-3.999-4zm-17.714 0a4 4 0 1 1 4 4 4 4 0 0 1-3.999-4zm-17.714 0a4 4 0 1 1 4 4 4 4 0 0 1-4-4zm89.142-24.869a4 4 0 1 1 4 4 4 4 0 0 1-4-4zm-18.857 0a4 4 0 1 1 4 4 4 4 0 0 1-4-4zm-17.142 0a4 4 0 1 1 4 4 4 4 0 0 1-4-4zm-17.715 0a4 4 0 1 1 4 4 4 4 0 0 1-3.999-4zm-17.714 0a4 4 0 1 1 4 4 4 4 0 0 1-3.999-4zM0 108.18a4 4 0 1 1 4 4 4 4 0 0 1-4-4zM89.142 81.3a4 4 0 1 1 4 4 4 4 0 0 1-4-4zm-18.857 0a4 4 0 1 1 4 4 4 4 0 0 1-4-4zm-17.142 0a4 4 0 1 1 4 4 4 4 0 0 1-4-4zm-17.715 0a4 4 0 1 1 4 4 4 4 0 0 1-3.999-4zm-17.714 0a4 4 0 1 1 4 4 4 4 0 0 1-3.999-4zM0 81.3a4 4 0 1 1 4 4 4 4 0 0 1-4-4zm89.142-25.546a4 4 0 1 1 4 4 4 4 0 0 1-4-4zm-18.857 0a4 4 0 1 1 4 4 4 4 0 0 1-4-4zm-17.142 0a4 4 0 1 1 4 4 4 4 0 0 1-4-4zm-17.715 0a4 4 0 1 1 4 4 4 4 0 0 1-3.999-4zm-17.714 0a4 4 0 1 1 4 4 4 4 0 0 1-3.999-4zM0 55.754a4 4 0 1 1 4 4 4 4 0 0 1-4-4zm89.142-26.213a4 4 0 1 1 4 4 4 4 0 0 1-4-4zm-18.857 0a4 4 0 1 1 4 4 4 4 0 0 1-4-4zm-17.142 0a4 4 0 1 1 4 4 4 4 0 0 1-4-4zm-17.715 0a4 4 0 1 1 4 4 4 4 0 0 1-3.999-4zm-17.714 0a4 4 0 1 1 4 4 4 4 0 0 1-3.999-4zM0 29.541a4 4 0 1 1 4 4 4 4 0 0 1-4-4zM89.142 4a4 4 0 1 1 4 4 4 4 0 0 1-4-4zM70.285 4a4 4 0 1 1 4 4 4 4 0 0 1-4-4zM53.143 4a4 4 0 1 1 4 4 4 4 0 0 1-4-4zM35.429 4a4 4 0 1 1 4 4 4 4 0 0 1-4-4zM17.715 4a4 4 0 1 1 4 4 4 4 0 0 1-4-4zM0 4a4 4 0 1 1 4 4 4 4 0 0 1-4-4z" style="fill:#fa6400;opacity:.059"/>
</svg>
